<svg xmlns="http://www.w3.org/2000/svg" width="25" height="26" viewBox="0 0 25 26"><g><g><path fill="#fff" d="M13 15.5a2.507 2.507 0 0 1-2.5-2.5c0-1.375 1.125-2.5 2.5-2.5s2.5 1.125 2.5 2.5-1.125 2.5-2.5 2.5zM13 8c-2.763 0-5 2.237-5 5s2.237 5 5 5 5-2.237 5-5-2.237-5-5-5zm6.813 4.088c.05.387.062.65.062.912 0 .263-.025.537-.063.912l-.175 1.413 1.113.875 1.35 1.05-.875 1.512-1.587-.637-1.3-.525-1.125.85c-.538.4-1.05.7-1.563.913l-1.325.537-.2 1.413-.25 1.687h-1.75l-.237-1.687-.2-1.413-1.325-.537a7.092 7.092 0 0 1-1.538-.888L7.688 17.6l-1.325.538-1.588.637-.875-1.512 1.35-1.05 1.113-.875-.175-1.413A10.055 10.055 0 0 1 6.125 13c0-.25.025-.537.063-.912l.175-1.413L5.25 9.8 3.9 8.75l.875-1.512 1.588.637 1.3.525 1.125-.85c.537-.4 1.05-.7 1.562-.912l1.325-.538.2-1.412.25-1.688h1.738l.237 1.688.2 1.412 1.325.538a7.092 7.092 0 0 1 1.538.887L18.3 8.4l1.325-.537 1.588-.638.875 1.513L20.75 9.8l-1.112.875zm2.475 2.137c.05-.4.087-.8.087-1.225 0-.425-.037-.825-.087-1.225l2.637-2.063a.63.63 0 0 0 .15-.8l-2.5-4.325a.624.624 0 0 0-.55-.312.584.584 0 0 0-.212.037L18.7 5.562c-.65-.5-1.35-.912-2.112-1.225l-.476-3.312A.61.61 0 0 0 15.5.5h-5a.61.61 0 0 0-.613.525l-.475 3.312A9.604 9.604 0 0 0 7.3 5.562l-3.113-1.25a.708.708 0 0 0-.225-.037.62.62 0 0 0-.537.312l-2.5 4.325a.616.616 0 0 0 .15.8l2.637 2.063c-.05.4-.087.812-.087 1.225 0 .412.037.825.087 1.225l-2.637 2.062a.63.63 0 0 0-.15.8l2.5 4.325c.112.2.325.313.55.313.075 0 .15-.013.212-.038l3.113-1.25c.65.5 1.35.913 2.112 1.225l.475 3.313c.038.3.3.525.613.525h5a.61.61 0 0 0 .612-.525l.475-3.313a9.604 9.604 0 0 0 2.113-1.225l3.112 1.25c.075.025.15.038.225.038a.62.62 0 0 0 .538-.313l2.5-4.325a.63.63 0 0 0-.15-.8z"/></g></g></svg>